<svg width="60" height="60" viewBox="0 0 60 60" fill="none" xmlns="http://www.w3.org/2000/svg">
<g clip-path="url(#clip0_135_143)">
<path d="M40.336 16.4812H19.5188V9.93276C19.5188 6.8812 21.9891 4.41089 25.0407 4.41089H34.8141C37.8657 4.41089 40.336 6.8812 40.336 9.93276V16.4812V16.4812Z" fill="#E06055"/>
<path d="M25.8375 5.447C25.5375 4.56106 23.8969 5.08606 23.0484 5.597C22.2 6.10793 21.0141 7.45793 21.4406 7.80012C21.8625 8.13762 22.5562 7.27512 24.0328 6.86731C25.4062 6.48762 26.0859 6.17825 25.8375 5.447V5.447Z" fill="white"/>
<path d="M41.5921 11.611H18.2859V10.6267C18.2859 10.2239 18.4459 9.83756 18.7307 9.55274C19.0155 9.26792 19.4018 9.10791 19.8046 9.10791H40.0781C40.2775 9.10791 40.475 9.14719 40.6593 9.22352C40.8435 9.29984 41.011 9.41171 41.152 9.55274C41.293 9.69377 41.4049 9.8612 41.4812 10.0455C41.5575 10.2297 41.5968 10.4272 41.5968 10.6267V11.611H41.5921Z" fill="#CE453E"/>
<path d="M56.1234 27.211L57.0891 5.70479C57.1064 5.38725 57.2467 5.08893 57.4801 4.87296C57.7135 4.65699 58.0218 4.54032 58.3397 4.54763C58.6577 4.55494 58.9603 4.68566 59.1835 4.91212C59.4068 5.13859 59.5332 5.44304 59.5359 5.76103V33.4079C59.5359 33.797 59.3484 34.1673 59.0344 34.397L55.5609 36.9329L56.1234 27.211V27.211ZM3.87656 27.211L2.91562 5.70479C2.89979 5.39063 2.76411 5.0945 2.53652 4.87737C2.30892 4.66024 2.00674 4.53864 1.69219 4.5376C1.01719 4.5376 0.46875 5.08603 0.46875 5.76103V33.4079C0.46875 33.797 0.65625 34.1673 0.970312 34.397L4.44375 36.9329L3.87656 27.211V27.211Z" fill="#78A3AD"/>
<path d="M6.41714 39.4828C8.83252 39.4828 10.7906 35.8437 10.7906 31.3547C10.7906 26.8656 8.83252 23.2266 6.41714 23.2266C4.00176 23.2266 2.0437 26.8656 2.0437 31.3547C2.0437 35.8437 4.00176 39.4828 6.41714 39.4828Z" fill="#E06055"/>
<path d="M5.72803 23.2219H6.95615V39.4829H5.72803V23.2219Z" fill="#CE453E"/>
<path d="M7.10156 39.4836H5.87344L5.87344 23.2227H7.10156L7.10156 39.4836Z" fill="#CE453E"/>
<path d="M53.6156 39.4828C56.031 39.4828 57.9891 35.8437 57.9891 31.3547C57.9891 26.8656 56.031 23.2266 53.6156 23.2266C51.2002 23.2266 49.2422 26.8656 49.2422 31.3547C49.2422 35.8437 51.2002 39.4828 53.6156 39.4828Z" fill="#E06055"/>
<path d="M54.3018 39.4836H53.0736V23.2227H54.3018V39.4836Z" fill="#CE453E"/>
<path d="M52.9265 23.2219H54.1546V39.4829H52.9265V23.2219Z" fill="#CE453E"/>
<path d="M52.0874 16.4766L46.8983 11.4047C45.9488 10.4762 44.6734 9.95624 43.3452 9.9563H16.7483C15.4218 9.9563 14.1468 10.4766 13.1952 11.4047L8.00615 16.4766C7.52184 16.9495 7.13711 17.5145 6.87466 18.1385C6.6122 18.7624 6.47734 19.4325 6.47803 20.1094V45.4313C6.47803 46.8 7.03116 48.1079 8.00615 49.0641L13.1952 54.136C14.1468 55.0641 15.4171 55.5844 16.7483 55.5844H43.3452C44.6718 55.5844 45.9468 55.0641 46.8983 54.136L52.0874 49.0641C53.0671 48.1079 53.6155 46.8 53.6155 45.4313V20.1094C53.6155 18.7454 53.0624 17.4329 52.0874 16.4766Z" fill="#78A3AD"/>
<path d="M18.8812 33.0562C22.6687 33.0562 25.7391 29.9859 25.7391 26.1984C25.7391 22.4109 22.6687 19.3406 18.8812 19.3406C15.0938 19.3406 12.0234 22.4109 12.0234 26.1984C12.0234 29.9859 15.0938 33.0562 18.8812 33.0562Z" fill="#546E7A"/>
<path d="M18.8813 30.511C21.2631 30.511 23.1938 28.5802 23.1938 26.1985C23.1938 23.8168 21.2631 21.886 18.8813 21.886C16.4996 21.886 14.5688 23.8168 14.5688 26.1985C14.5688 28.5802 16.4996 30.511 18.8813 30.511Z" fill="#B8E9F4"/>
<path d="M40.7626 33.0562C44.5501 33.0562 47.6204 29.9859 47.6204 26.1984C47.6204 22.4109 44.5501 19.3406 40.7626 19.3406C36.9751 19.3406 33.9048 22.4109 33.9048 26.1984C33.9048 29.9859 36.9751 33.0562 40.7626 33.0562Z" fill="#546E7A"/>
<path d="M40.7624 30.511C43.1442 30.511 45.075 28.5802 45.075 26.1985C45.075 23.8168 43.1442 21.886 40.7624 21.886C38.3807 21.886 36.45 23.8168 36.45 26.1985C36.45 28.5802 38.3807 30.511 40.7624 30.511Z" fill="#B8E9F4"/>
<path d="M3.76865 24.8345C3.76865 24.8345 1.44365 30.2626 2.74678 35.6907L1.11084 34.4954C1.11084 34.4954 1.24209 31.786 2.04365 28.8001C2.8499 25.8048 3.76865 24.8345 3.76865 24.8345V24.8345ZM56.2312 24.8345C56.2312 24.8345 58.5562 30.2626 57.253 35.6907L58.889 34.4954C58.889 34.4954 58.7577 31.786 57.9562 28.8001C57.1499 25.8048 56.2312 24.8345 56.2312 24.8345V24.8345Z" fill="#64878E"/>
<path d="M28.9921 30.7968L26.4656 36.8671C26.2031 37.4952 26.6671 38.189 27.3468 38.189H32.3015C32.9765 38.189 33.4406 37.5046 33.1875 36.8812L30.7593 30.8109C30.4406 30.0187 29.3203 30.0093 28.9921 30.7968V30.7968Z" fill="#E06055"/>
<path d="M29.747 31.6876C29.236 31.5422 29.0813 32.3485 28.8095 33.0563C28.3595 34.2422 28.2376 34.7954 28.486 34.8844C28.8141 35.0063 29.1001 34.6313 29.5407 33.5579C29.9626 32.5501 30.1782 31.8094 29.747 31.6876V31.6876Z" fill="#EDA29B"/>
<path d="M22.6829 42.3423V47.1282ZM27.6422 42.3423V47.1282ZM32.6063 42.3423V47.1282ZM37.5657 42.3423V47.1282Z" fill="#ECEFF1"/>
<path d="M38.4328 47.1282H21.6609C19.3593 47.1282 17.489 45.2626 17.489 42.9563V42.3423H42.5999V42.9563C42.5999 45.2579 40.7343 47.1282 38.4328 47.1282Z" fill="#B8E9F4"/>
<path d="M38.8452 47.1282H21.2483C19.1765 47.1282 17.4937 45.4454 17.4937 43.3735C17.4937 42.8017 17.9577 42.3423 18.5249 42.3423H41.5733C42.1452 42.3423 42.6046 42.8063 42.6046 43.3735C42.5999 45.4454 40.9218 47.1282 38.8452 47.1282Z" fill="#546E7A" stroke="#546E7A" stroke-width="1.875" stroke-miterlimit="10"/>
<path d="M21.9468 42.8999V46.8374C21.9468 46.8374 17.4937 46.4718 17.4937 42.9562L21.9468 42.8999ZM38.1093 42.8999V46.8374C38.1093 46.8374 42.5624 46.4718 42.5624 42.9562L38.1093 42.8999Z" fill="#546E7A"/>
<path d="M23.7703 43.3452H26.6765V46.139H23.7703V43.3452ZM28.3687 43.3452H31.275V46.139H28.3687V43.3452ZM32.9671 43.3452H35.8734V46.139H32.9671V43.3452ZM37.6781 46.139H37.5656V43.3452H40.4718C40.4718 44.8874 39.2203 46.139 37.6781 46.139V46.139ZM22.0828 46.139H21.9703C20.4281 46.139 19.1765 44.8874 19.1765 43.3452H22.0828V46.139Z" fill="#B8E9F4"/>
</g>
<defs>
<clipPath id="clip0_135_143">
<rect width="60" height="60" fill="white"/>
</clipPath>
</defs>
</svg>
